<?xml version="1.0" encoding="UTF-8"?>
<svg width="60px" height="57px" viewBox="0 0 60 57" version="1.1" xmlns="http://www.w3.org/2000/svg" xmlns:xlink="http://www.w3.org/1999/xlink">
    <!-- Generator: Sketch 63.1 (92452) - https://sketch.com -->
    <title>1f</title>
    <desc>Created with Sketch.</desc>
    <defs>
        <linearGradient x1="-44.0106103%" y1="-32.2297186%" x2="235.871409%" y2="77.3999912%" id="linearGradient-1">
            <stop stop-color="#5EB2FC" offset="0%"></stop>
            <stop stop-color="#8080F1" offset="100%"></stop>
        </linearGradient>
    </defs>
    <g id="Page-1" stroke="none" stroke-width="1" fill="none" fill-rule="evenodd">
        <g id="desktop" transform="translate(-144.000000, -150.000000)">
            <g id="1f" transform="translate(144.000000, 150.000000)">
                <path d="M49.9335729,34.1206345 C49.5582179,34.8034348 49.3433766,35.566492 49.3211516,36.3851116 C48.3309059,36.2962117 47.3406602,36.2283021 46.3504145,36.1727397 C44.2044706,41.1585404 39.8965313,45.0096331 34.6057547,46.564146 C34.5847644,47.8717149 34.5403145,49.1694059 34.4736396,50.4782095 L34.4390674,50.4782095 C33.9945681,50.4794442 33.562416,50.581926 33.187061,50.7757771 C32.9018406,49.5472303 32.604273,48.3063364 32.2955929,47.0777897 C31.3633791,47.2271908 30.3953583,47.3062129 29.4174598,47.3074477 C25.6392156,47.3111518 22.1326098,46.1776786 19.2063226,44.2342287 C18.7173734,44.5885935 18.2284241,44.9293763 17.7283624,45.2713938 C17.4999391,44.8738139 17.1356966,44.555256 16.7023098,44.3848646 C17.0443273,43.963825 17.350538,43.5316729 17.6456361,43.0871736 C14.1945928,40.2337349 11.8004701,36.1505147 11.1361905,31.5079662 C10.180517,31.3956067 9.21249624,31.2943596 8.23459773,31.204225 C8.3358448,31.0338336 8.40375442,30.851095 8.47166404,30.6572439 C8.73342475,29.8830743 8.754415,29.0866797 8.59513607,28.3470822 C9.39153069,28.1186589 10.1768128,27.9013481 10.9732074,27.6963846 C11.1522419,24.7947918 12.0029642,22.0623557 13.3772079,19.6818149 C12.5450064,18.5569846 11.6794675,17.4309197 10.7793563,16.3270797 C11.2226209,16.1789133 11.5868634,15.8714679 11.8029395,15.4615408 C12.7820727,16.1776786 13.7723184,16.8827039 14.7514517,17.6099541 C18.1271771,13.2254622 23.416719,10.3979527 29.3791835,10.3905443 C30.825041,10.3893096 32.2363263,10.5584663 33.5797021,10.8757894 C33.9649348,10.0225977 34.3279426,9.16817121 34.6921851,8.30263225 C35.2959633,8.81504119 36.0355608,9.16693649 36.8554151,9.30275572 C36.7084834,10.1337225 36.5837766,10.9646893 36.4590699,11.7944214 C40.8534396,13.5995825 44.3970869,17.0666772 46.3010257,21.4128928 C46.8936915,21.2079292 47.4851225,20.9906184 48.0765535,20.7621952 C48.2815171,21.3314012 48.6346471,21.831463 49.0791464,22.2290429 C48.3963461,22.6056326 47.725893,22.9933348 47.0430926,23.3686898 C47.580196,25.098533 47.8666511,26.9296232 47.8678858,28.8310926 C47.8703552,30.4238818 47.6666264,31.9722211 47.2925061,33.4514161 C48.1691576,33.6786046 49.0569215,33.9045584 49.9335729,34.1206345" id="Fill-9" fill="url(#linearGradient-1)"></path>
                <path d="M49.3211516,36.3857289 C49.3433766,35.5658746 49.5582179,34.8040522 49.9335729,34.1212518 C50.8077549,32.4580835 52.5598231,31.3295492 54.5736519,31.3270778 C57.4752447,31.3246103 59.8446731,33.6779872 59.8483791,36.5919272 C59.8508467,39.5046325 57.4863572,41.8629483 54.5847644,41.8654197 C51.6708244,41.8678872 49.3137433,39.515745 49.3100391,36.601805 C49.3100391,36.5338954 49.3100391,36.4536385 49.3211516,36.3857289" id="Fill-11" fill="#5EB2FC"></path>
                <path d="M48.0761831,20.7618247 C47.9391292,20.3753573 47.8588695,19.9543176 47.8588695,19.5221655 C47.8564029,17.5194491 49.4825296,15.8896183 51.485246,15.8883808 C53.4879623,15.8859141 55.1177932,17.5120408 55.1190307,19.5147572 C55.1214974,21.5174736 53.4953707,23.1460697 51.4926543,23.1485424 C50.5715529,23.1497739 49.7171264,22.7978786 49.078776,22.2286725 C48.6355114,21.8310926 48.2823814,21.3310308 48.0761831,20.7618247" id="Fill-13" fill="#5EB2FC"></path>
                <path d="M36.8551682,9.30263225 C36.0353139,9.16681301 35.2957164,8.81491772 34.6919381,8.30250878 C33.7350299,7.4962364 33.1201392,6.27880215 33.1176674,4.91320146 C33.1152003,2.45610799 35.1055695,0.462034646 37.5626629,0.459562909 C40.0209911,0.457095765 42.0150645,2.44623023 42.0175362,4.90455841 C42.0200033,7.3628866 40.0308689,9.35572523 37.5725407,9.35819467 C37.3330049,9.35819467 37.0835914,9.3359697 36.8551682,9.30263225" id="Fill-15" fill="#8080F1"></path>
                <path d="M35.0796403,31.3473283 C36.7181142,31.3460944 38.0516122,32.6758882 38.0528478,34.3143621 C38.0540816,35.952836 36.7242878,37.2863339 35.0858139,37.2875695 C33.44734,37.2888034 32.1249546,35.9590096 32.123719,34.3205357 C32.1224851,32.6820618 33.4411664,31.3485638 35.0796403,31.3473283" id="Fill-18" fill="#5F5FF6" opacity="0.544642857"></path>
                <path d="M34.4731457,50.4777156 C36.0103725,50.4999406 37.2512665,51.7494775 37.2525021,53.2854696 C37.2537359,54.8449214 35.9918517,56.1105107 34.4447471,56.1105107 C32.8852954,56.1117445 31.6332889,54.851095 31.6308177,53.2916432 C31.6295848,52.1878033 32.255588,51.230895 33.1878018,50.7752832 C33.5631568,50.5814321 33.9953089,50.4789503 34.4398083,50.4777156 L34.4731457,50.4777156 Z" id="Fill-20" fill="#5F5FF6"></path>
                <path d="M22.5371042,18.6830466 C26.7475006,18.6793454 30.154094,22.0785305 30.1578035,26.2889269 C30.162737,30.4993232 26.7635519,33.9157944 22.5531556,33.9207386 C18.3427592,33.9256721 14.9250533,30.5153746 14.9201115,26.3037435 C14.9164103,22.0933472 18.3267079,18.6867537 22.5371042,18.6830466" id="Fill-22" fill="#5F5FF6" opacity="0.385346912"></path>
                <path d="M25.5496984,37.9122126 C26.8930741,37.910979 27.9858016,38.9913593 27.9882721,40.3335003 C27.9895057,41.6756413 26.898013,42.758491 25.5546372,42.7597268 C24.2124962,42.7609604 23.1296465,41.6818149 23.1284107,40.3384391 C23.1271771,38.9950634 24.2075574,37.9134484 25.5496984,37.9122126" id="Fill-24" fill="#5F5FF6" opacity="0.544642857"></path>
                <path d="M16.7029272,44.3848646 C17.1350793,44.555256 17.5005565,44.8738139 17.727745,45.2713938 C17.9438211,45.6010642 18.0697637,45.9998788 18.0697637,46.4320309 C18.0709973,47.6605777 17.0708738,48.6520581 15.8423271,48.653294 C14.6137803,48.6545275 13.6222999,47.6655166 13.621064,46.4369698 C13.6198305,45.2071884 14.6088415,44.2045789 15.8373882,44.2045789 C16.1448336,44.2033607 16.4411664,44.2712704 16.7029272,44.3848646" id="Fill-26" fill="#5F5FF6"></path>
                <path d="M11.8025691,15.4617877 C11.586493,15.8717149 11.2222505,16.1791602 10.7789859,16.3285614 C10.5863696,16.4075835 10.381406,16.442157 10.1640952,16.442157 C9.11828708,16.4433904 8.26386061,15.5901986 8.26262455,14.555503 C8.26139117,13.5084601 9.1133482,12.6540337 10.160391,12.6527976 C11.1963214,12.6515642 12.0507479,13.504756 12.0519826,14.5517988 C12.0519826,14.8814691 11.961848,15.1889145 11.8025691,15.4617877" id="Fill-28" fill="#5EB2FC"></path>
                <path d="M8.59525954,28.3473291 C8.75453847,29.0869266 8.73354822,29.8833212 8.47178751,30.6574909 C8.40387789,30.851342 8.33596827,31.0328459 8.23472121,31.204472 C7.30250735,33.1281663 5.06148994,34.0974217 2.97851674,33.4170908 C0.701692438,32.6577378 -0.529323737,30.1895319 0.218916787,27.9114728 C0.979504513,25.6358833 3.43536326,24.4036324 5.72453476,25.1642201 C7.22718941,25.6630471 8.27546698,26.9027063 8.59525954,28.3473291" id="Fill-30" fill="#8080F1"></path>
            </g>
        </g>
    </g>
</svg>