<?xml version="1.0" encoding="UTF-8"?>
<svg width="13px" height="13px" viewBox="0 0 13 13" version="1.1" xmlns="http://www.w3.org/2000/svg" xmlns:xlink="http://www.w3.org/1999/xlink">
    <!-- Generator: Sketch 63.1 (92452) - https://sketch.com -->
    <title>3f</title>
    <desc>Created with Sketch.</desc>
    <g id="Page-1" stroke="none" stroke-width="1" fill="none" fill-rule="evenodd">
        <g id="desktop" transform="translate(-375.000000, -175.000000)">
            <g id="3f" transform="translate(375.000000, 175.000000)">
                <path d="M12.685524,6.33658839 C12.6892245,9.8407247 9.8530719,12.6830509 6.34893559,12.6867587 C2.84479928,12.6904592 0.00370778525,9.85430662 9.97953281e-14,6.35017031 C-0.00370053677,2.846034 2.83245207,0.00370778525 6.33658839,1.53531274e-14 C9.8407247,-0.00370053677 12.6818162,2.83245207 12.685524,6.33658839" id="Fill-32" fill="#2C8CF4"></path>
                <path d="M7.70626366,6.68391352 C8.53105684,6.6826805 9.20397942,7.35436836 9.20521584,8.17916154 C9.20644886,9.00889361 8.534761,9.67811203 7.7087331,9.67934675 C6.88023575,9.67934675 6.20731317,9.01136305 6.20607845,8.18286571 C6.20607845,7.35807252 6.87776631,6.68391352 7.70626366,6.68391352" id="Fill-34" fill="#5F5FF6" opacity="0.472470238"></path>
                <path d="M4.19385472,2.01630079 C5.43351393,2.01506721 6.43363741,3.01766013 6.43487327,4.25361518 C6.43610685,5.48957024 5.43845282,6.49339787 4.1987936,6.49463373 C2.96283854,6.49586731 1.95777619,5.4932744 1.95654147,4.25731934 C1.95654147,3.02136429 2.95789966,2.01753665 4.19385472,2.01630079" id="Fill-36" fill="#5F5FF6" opacity="0.472470238"></path>
                <path d="M4.17817377,7.73404225 C4.71651184,7.73281014 5.15236811,8.16990114 5.15360283,8.70700449 C5.15360283,9.24534255 4.71774656,9.68119883 4.17940849,9.68243355 C3.64230514,9.68243355 3.20521414,9.247812 3.20397942,8.70947393 C3.20397942,8.17113586 3.6398357,7.73404225 4.17817377,7.73404225" id="Fill-38" fill="#5F5FF6" opacity="0.472470238"></path>
            </g>
        </g>
    </g>
</svg>