<?xml version="1.0" encoding="UTF-8"?>
<svg width="71px" height="74px" viewBox="0 0 71 74" version="1.1" xmlns="http://www.w3.org/2000/svg" xmlns:xlink="http://www.w3.org/1999/xlink">
    <!-- Generator: Sketch 63.1 (92452) - https://sketch.com -->
    <title>4f</title>
    <desc>Created with Sketch.</desc>
    <g id="Page-1" stroke="none" stroke-width="1" fill="none" fill-rule="evenodd">
        <g id="desktop" transform="translate(-382.000000, -87.000000)">
            <g id="4f" transform="translate(419.000000, 126.000000) rotate(-132.000000) translate(-419.000000, -126.000000) translate(379.000000, 88.000000)">
                <path d="M66.5780972,45.4941793 C66.0776239,46.4045798 65.7911688,47.4219893 65.7615355,48.5134821 C64.4412079,48.3949489 63.1208803,48.3044028 61.8005527,48.2303196 C58.9392941,54.8780539 53.1953751,60.0128442 46.1410062,62.085528 C46.1130192,63.8289531 46.0537527,65.5592079 45.9648528,67.3042793 L45.9187566,67.3042793 C45.3260908,67.3059256 44.749888,67.442568 44.2494147,67.7010361 C43.8691208,66.0629738 43.472364,64.4084485 43.0607906,62.7703862 C41.8178388,62.9695878 40.5271444,63.0749506 39.2232798,63.0765969 C34.1856208,63.0815358 29.5101464,61.5702381 25.6084302,58.9789717 C24.9564978,59.451458 24.3045655,59.9058351 23.6378165,60.3618584 C23.3332522,59.8317518 22.8475955,59.407008 22.2697464,59.1798195 C22.7257698,58.6184333 23.1340506,58.0422305 23.5275148,57.4495647 C18.9261237,53.6449798 15.7339601,48.2006863 14.848254,42.0106217 C13.5740226,41.8608089 12.2833283,41.7258128 10.9794636,41.6056334 C11.1144597,41.3784448 11.2050059,41.1347934 11.2955521,40.8763252 C11.6445663,39.844099 11.6725533,38.7822396 11.4601814,37.7961096 C12.5220409,37.4915452 13.5690838,37.2017975 14.6309433,36.9285128 C14.8696559,33.0597224 16.0039523,29.4164742 17.8362772,26.2424198 C16.7266752,24.7426462 15.5726233,23.2412263 14.3724751,21.7694396 C14.9634946,21.5718844 15.4491513,21.1619572 15.7372527,20.6153877 C17.0427636,21.5702381 18.3630913,22.5102718 19.6686022,23.4799389 C24.1695694,17.6339496 31.222292,13.8639369 39.1722446,13.8540591 C41.1000547,13.8524128 42.9817685,14.0779551 44.7729361,14.5010526 C45.2865798,13.3634636 45.7705901,12.2242283 46.2562468,11.0701763 C47.0612844,11.7533883 48.0474144,12.222582 49.1405535,12.4036743 C48.9446445,13.51163 48.7783689,14.6195857 48.6120932,15.7258951 C54.4712528,18.1327767 59.1961159,22.7555696 61.7347009,28.5505237 C62.5249219,28.2772389 63.3134967,27.9874912 64.1020714,27.6829269 C64.3753561,28.4418683 64.8461962,29.1086173 65.4388619,29.6387239 C64.5284615,30.1408435 63.6345239,30.6577797 62.7241235,31.1582531 C63.4402613,33.4647106 63.8222014,35.9061643 63.8238477,38.4414567 C63.8271403,40.5651757 63.5555018,42.6296281 63.0566748,44.6018881 C64.2255434,44.9048061 65.4092286,45.2060779 66.5780972,45.4941793" id="Fill-9" fill="#2C8CF4"></path>
                <path d="M65.7615355,48.5143052 C65.7911688,47.4211662 66.0776239,46.4054029 66.5780972,45.4950024 C67.7436732,43.2774447 70.0797641,41.7727322 72.7648693,41.769437 C76.6336596,41.766147 79.7928974,44.903983 79.7978389,48.7892363 C79.8011289,52.6728433 76.6484763,55.8172645 72.7796859,55.8205596 C68.8944326,55.8238496 65.7516577,52.68766 65.7467189,48.8024067 C65.7467189,48.7118605 65.7467189,48.6048514 65.7615355,48.5143052" id="Fill-11" fill="#1273EB"></path>
                <path d="M64.1015775,27.682433 C63.9188389,27.167143 63.811826,26.6057569 63.811826,26.029554 C63.8085372,23.3592655 65.9767061,21.1861577 68.6469946,21.1845077 C71.3172831,21.1812189 73.4903909,23.3493878 73.492041,26.0196763 C73.4953298,28.6899648 71.3271609,30.8614263 68.6568724,30.8647232 C67.4287372,30.8663652 66.2895019,30.3971714 65.438368,29.63823 C64.8473486,29.1081234 64.3765085,28.4413744 64.1015775,27.682433" id="Fill-13" fill="#2C8CF4"></path>
                <path d="M49.1402242,12.4035097 C48.0470852,12.2224174 47.0609552,11.7532236 46.2559175,11.0700117 C44.9800398,9.99498187 44.1601855,8.3717362 44.1568899,6.55093528 C44.1536004,3.27481065 46.8074259,0.616046195 50.0835506,0.612750545 C53.3613215,0.60946102 56.0200859,3.2616403 56.0233816,6.53941122 C56.0266711,9.81718214 53.3744918,12.4743003 50.0967209,12.4775929 C49.7773399,12.4775929 49.4447886,12.4479596 49.1402242,12.4035097" id="Fill-15" fill="#1273EB"></path>
                <path d="M46.7728538,41.7964377 C48.9574856,41.7947925 50.7354829,43.5678509 50.7371303,45.7524828 C50.7387755,47.9371146 48.9657171,49.7151119 46.7810852,49.7167594 C44.5964534,49.7184045 42.8332728,47.9453461 42.8316253,45.7607143 C42.8299802,43.5760824 44.5882219,41.7980851 46.7728538,41.7964377" id="Fill-18" fill-opacity="0.429660184" fill="#4949E7"></path>
                <path d="M45.9641943,67.3036208 C48.01383,67.3332541 49.6683553,68.9993034 49.6700028,71.0472929 C49.6716479,73.1265619 47.9891356,74.8140142 45.9263295,74.8140142 C43.8470605,74.8156593 42.1777186,73.1347934 42.1744236,71.0555243 C42.1727797,69.5837377 43.0074506,68.30786 44.2504024,67.7003776 C44.7508758,67.4419095 45.3270786,67.3052671 45.9197443,67.3036208 L45.9641943,67.3036208 Z" id="Fill-20" fill="#2C8CF4"></path>
                <path d="M30.0494723,24.9107287 C35.6633341,24.9057939 40.2054586,29.4380407 40.2104047,35.0519025 C40.2169827,40.6657643 35.6847359,45.2210592 30.0708741,45.2276515 C24.4570123,45.2342295 19.9000711,40.6871661 19.8934819,35.071658 C19.8885471,29.4577962 24.4356105,24.9156717 30.0494723,24.9107287" id="Fill-22" fill-opacity="0.429660184" fill="#4949E7"></path>
                <path d="M34.0662645,50.5496168 C35.8574321,50.5479719 37.3144021,51.988479 37.3176961,53.7780003 C37.319341,55.5675217 35.8640173,57.0113213 34.0728497,57.012969 C32.2833283,57.0146139 30.8395287,55.5757532 30.837881,53.7845855 C30.8362361,51.9934179 32.2767431,50.5512645 34.0662645,50.5496168" id="Fill-24" fill-opacity="0.429660184" fill="#4949E7"></path>
                <path d="M22.2705695,59.1798195 C22.8467724,59.407008 23.3340753,59.8317518 23.6369934,60.3618584 C23.9250948,60.8014189 24.0930183,61.3331718 24.0930183,61.9093746 C24.0946631,63.5474369 22.7611651,64.8694108 21.1231028,64.8710586 C19.4850405,64.8727034 18.1630666,63.5540221 18.1614187,61.9159598 C18.159774,60.2762512 19.4784553,58.9394385 21.1165176,58.9394385 C21.5264448,58.9378143 21.9215553,59.0283605 22.2705695,59.1798195" id="Fill-26" fill="#2C8CF4"></path>
                <path d="M15.7367588,20.6157169 C15.4486574,21.1622865 14.9630007,21.5722136 14.3719812,21.7714152 C14.1151594,21.876778 13.8418746,21.922876 13.5521269,21.922876 C12.1577161,21.9245205 11.0184808,20.7869315 11.0168327,19.4073373 C11.0151882,18.0112802 12.1511309,16.8720449 13.5471881,16.8703968 C14.9284285,16.8687523 16.0676638,18.0063413 16.0693101,19.4023984 C16.0693101,19.8419589 15.9491307,20.251886 15.7367588,20.6157169" id="Fill-28" fill="#2C8CF4"></path>
                <path d="M11.4603461,37.7964388 C11.672718,38.7825688 11.644731,39.8444283 11.2957167,40.8766545 C11.2051705,41.1351226 11.1146244,41.3771278 10.9796283,41.6059626 C9.73667647,44.1708884 6.74865326,45.463229 3.97135565,44.5561211 C0.935589917,43.5436504 -0.705764983,40.2527092 0.291889049,37.2152971 C1.30600602,34.1811777 4.58048435,32.5381765 7.63271302,33.5522935 C9.63625255,34.2173962 11.033956,35.8702751 11.4603461,37.7964388" id="Fill-30" fill="#1273EB"></path>
            </g>
        </g>
    </g>
</svg>