<?xml version="1.0" encoding="UTF-8"?>
<svg width="27px" height="27px" viewBox="0 0 27 27" version="1.1" xmlns="http://www.w3.org/2000/svg" xmlns:xlink="http://www.w3.org/1999/xlink">
    <!-- Generator: Sketch 63.1 (92452) - https://sketch.com -->
    <title>5f</title>
    <desc>Created with Sketch.</desc>
    <g id="Page-1" stroke="none" stroke-width="1" fill="none" fill-rule="evenodd">
        <g id="desktop" transform="translate(-447.000000, -168.000000)">
            <g id="5f" transform="translate(447.000000, 168.000000)">
                <path d="M26.81567,13.3942531 C26.8230714,20.8013404 20.8285042,26.8082548 13.4214169,26.81567 C6.01432962,26.8230714 0.00864990158,20.8285042 8.77321565e-15,13.4214169 C-0.00740146279,6.01432962 5.98716577,0.00741518124 13.3942531,8.33455487e-14 C20.8013404,-0.00740146279 26.8082548,5.98716577 26.81567,13.3942531" id="Fill-1" fill="#8080F1"></path>
                <path d="M16.2904131,14.1273057 C18.0350729,14.1260718 19.4574707,15.5447655 19.4587087,17.29066 C19.4611749,19.0414935 18.0400118,20.456483 16.2965867,20.4589532 C14.5445185,20.4601871 13.1221207,19.0476671 13.1196505,17.2955989 C13.1184165,15.5521738 14.5383449,14.129776 16.2904131,14.1273057" id="Fill-3" fill="#5F5FF6" opacity="0.684965588"></path>
                <path d="M8.86529887,4.26164194 C11.4853754,4.25917466 13.6004514,6.37795475 13.602923,8.98938826 C13.6053902,11.6020565 11.4952532,13.7245408 8.87517663,13.7282471 C6.2625084,13.7307144 4.14002415,11.6119343 4.13754986,8.99926603 C4.13385054,6.38783252 6.25263064,4.26411354 8.86529887,4.26164194" id="Fill-5" fill="#5F5FF6" opacity="0.684965588"></path>
                <path d="M8.83146753,16.3483202 C9.96864496,16.3470867 10.8909811,17.2681881 10.892217,18.4053655 C10.8934505,19.542543 9.97358384,20.4648791 8.83517169,20.466115 C7.69922899,20.4673485 6.77565817,19.5462471 6.77442221,18.4090697 C6.77318873,17.2718923 7.6942901,16.3495562 8.83146753,16.3483202" id="Fill-7" fill="#5F5FF6" opacity="0.684965588"></path>
            </g>
        </g>
    </g>
</svg>