<?xml version="1.0" encoding="UTF-8"?>
<svg width="149px" height="156px" viewBox="0 0 149 156" version="1.1" xmlns="http://www.w3.org/2000/svg" xmlns:xlink="http://www.w3.org/1999/xlink">
    <!-- Generator: Sketch 63.1 (92452) - https://sketch.com -->
    <title>7b</title>
    <desc>Created with Sketch.</desc>
    <g id="Page-1" stroke="none" stroke-width="1" fill="none" fill-rule="evenodd" opacity="0.345238095">
        <g id="desktop" transform="translate(-250.000000, -133.000000)" fill="#5EB2FC">
            <path d="M372.392791,242.644056 C372.400526,242.652542 372.400526,242.660257 372.40826,242.6672 C373.336378,244.086741 374.303168,245.483908 375.285426,246.864874 C381.047494,243.362312 388.689001,244.46477 393.174906,249.788818 C398.12487,255.659081 397.366906,264.430914 391.465621,269.376161 C385.587539,274.314464 376.793619,273.557633 371.83592,267.671169 C367.798606,262.849361 367.574311,256.075685 370.876865,251.077205 C369.616171,250.389808 368.340008,249.749472 367.040643,249.124566 C362.07521,254.232597 356.019239,258.437214 349.042883,261.321812 C349.042883,261.330299 349.050618,261.330299 349.050618,261.337242 C349.321319,261.808622 349.561083,262.317033 349.769909,262.857076 C352.585201,269.993352 349.07382,278.048472 341.92731,280.848979 C334.78776,283.648713 326.721639,280.139208 323.906347,273.002932 C322.893152,270.433873 322.699794,267.73366 323.225727,265.210118 C316.233903,264.531208 309.466375,262.494476 303.309857,259.261936 C300.084646,262.356379 296.944513,265.549574 293.889457,268.82146 C294.840778,269.855256 295.61421,271.088867 296.163346,272.486034 C298.615125,278.695752 295.56007,285.70859 289.317701,288.161926 C283.099309,290.599832 276.054118,287.53702 273.610073,281.334245 C271.166028,275.124528 274.228819,268.103203 280.454172,265.657582 C284.121012,264.223384 288.065515,264.685506 291.182445,266.591084 C293.448601,263.06615 295.552335,259.447093 297.469673,255.713085 C293.378218,252.858574 289.658784,249.417732 286.456776,245.445333 L286.441308,245.453048 C285.063826,246.015464 283.703359,246.571708 282.325877,247.12718 C282.535477,249.186285 281.359087,251.200644 279.341203,251.986791 C276.897159,252.951153 274.136007,251.748401 273.176951,249.310495 C272.217896,246.871817 273.416715,244.1176 275.86076,243.161725 C277.74716,242.420324 279.820731,242.976567 281.120097,244.372192 C282.117824,243.693281 283.092348,242.976567 284.074606,242.258311 C281.785248,238.940907 279.8362,235.314907 278.296297,231.411171 C276.951299,227.985758 275.976001,224.514056 275.36499,221.019981 C273.075632,220.942061 270.786273,220.934346 268.505423,220.958262 C268.064567,224.159171 265.937629,227.044541 262.696949,228.310555 C257.932609,230.185274 252.518586,227.832232 250.646108,223.079858 C248.767442,218.303567 251.126409,212.919343 255.89771,211.052339 C260.678292,209.176848 266.069112,211.514461 267.948552,216.290752 C268.072301,216.590861 268.172847,216.907943 268.265659,217.201109 C270.423534,216.783733 272.558206,216.360186 274.716081,215.950525 C273.277497,197.635368 281.420962,179.667382 296.278588,168.673659 C290.927213,168.149046 286.030616,164.70126 283.927654,159.354839 C280.919004,151.724038 284.670149,143.114217 292.311656,140.113895 C299.960897,137.11203 308.600131,140.869183 311.608781,148.499984 C313.287128,152.750119 312.854006,157.317336 310.804412,161.043629 C320.302155,157.757856 330.155677,157.294191 339.397414,159.239116 C340.156151,157.895953 340.944278,156.562048 341.726218,155.242029 L341.87317,155.041442 C340.071074,153.738397 338.623983,151.902252 337.750778,149.695793 C335.275796,143.415869 338.377258,136.318168 344.672993,133.84863 C350.967955,131.379864 358.068833,134.482023 360.543815,140.761175 C363.018024,147.041098 359.932804,154.131856 353.637068,156.600622 C352.399578,157.08666 351.131149,157.35591 349.885924,157.410686 L349.893658,157.595843 C349.568817,159.122621 349.25171,160.642455 348.895931,162.16306 C356.521969,165.30225 363.420982,170.171119 368.950246,176.505047 C370.033824,175.046932 371.503345,173.897413 373.32091,173.179156 C378.557043,171.127766 384.449821,173.704541 386.500189,178.912094 C388.557517,184.12659 385.996684,190.00611 380.761324,192.058272 C380.057501,192.327521 379.345944,192.52888 378.634386,192.620687 C381.38703,199.795538 382.485304,207.202607 382.122564,214.415261 C382.129525,214.415261 382.129525,214.407546 382.138033,214.407546 C382.524749,214.176871 382.950136,213.983998 383.398727,213.805784 C389.276809,211.499803 395.897386,214.376686 398.202213,220.224576 C400.514774,226.096381 397.6291,232.692615 391.751791,234.999368 C386.894639,236.904946 381.511553,235.261674 378.510637,231.280789 C378.502903,231.273074 378.502903,231.273074 378.502903,231.264588 C376.939797,235.276332 374.890976,239.102919 372.392791,242.644056 Z" id="7b"></path>
        </g>
    </g>
</svg>